A dedicated student at a medical college and his girlfriend become involved in bizarre experiments centering around the re-animation of dead tissue when an odd new student arrives on campus.
 
iMDB:  http://www.imdb.com/title/tt89885

General
 Complete name :Re-Animator 1985 BRRip x264 AAC-UNiQUE.mp4
 Format : MPEG-4
 Format profile : Base Media
 Codec ID : isom
 File size : 1.39 GiB
 Duration : 1h 25mn
 Overall bit rate mode : Variable
 Overall bit rate : 2 318 Kbps
 Encoded date : UTC 2012-08-25 09:27:57
 
Video
 ID : 1
 Format : AVC
 Format/Info : Advanced Video Codec
 Format profile : High@L4.1
 Format settings, CABAC : Yes
 Format settings, ReFrames : 3 frames
 Codec ID : avc1
 Codec ID/Info : Advanced Video Coding
 Duration : 1h 25mn
 Bit rate mode : Variable
 Bit rate : 1 986 Kbps
 Maximum bit rate : 40.0 Mbps
 Width : 720 pixels
 Height : 384 pixels
 Display aspect ratio : 1.85:1
 Frame rate mode : Constant
 Frame rate : 23.976 fps
 Color space : YUV
 Chroma subsampling : 4:2:0
 Bit depth : 8 bits
 Scan type : Progressive
 Bits/(Pixel*Frame) : 0.300
 Stream size : 1.19 GiB (86%)
 Writing library : x264 core 125 r2208 d9d2288
 
Audio
 ID : 2
 Format : AAC
 Format/Info : Advanced Audio Codec
 Format profile : LC
 Codec ID : 40
 Duration : 1h 25mn
 Bit rate mode : Variable
 Bit rate : 328 Kbps
 Maximum bit rate : 376 Kbps
 Channel(s) : 6 channels
 Channel positions : Front: L C R, Side: L R, LFE
 Sampling rate : 48.0 KHz
 Compression mode : Lossy
 Stream size : 201 MiB (14%)
 Language : English
 Encoded date : UTC 2012-08-25 09:28:17
 
Subtitles : English.srt included
 
Source : 720p.BluRay.x264-HD4U - Thanks!
 
http://i.imgrz.com/2fyue.png 
http://i.imgrz.com/3MZKo.png 
http://i.imgrz.com/3cGBM.png 
http://i.imgrz.com/GStKc.png
